<svg version="1.2" xmlns="http://www.w3.org/2000/svg" viewBox="0 0 1024 1024" width="1024" height="1024">
	<style>
		.s0 { opacity: .07;fill: #000000 } 
		.s1 { opacity: .13;fill: #000101 } 
		.s2 { opacity: .47;fill: #000001 } 
		.s3 { opacity: .98;fill: #000000 } 
		.s4 { opacity: .91;fill: #000001 } 
		.s5 { opacity: .75;fill: #000102 } 
		.s6 { opacity: .68;fill: #000101 } 
		.s7 { opacity: .86;fill: #000001 } 
		.s8 { opacity: .4;fill: #000101 } 
		.s9 { opacity: .81;fill: #000102 } 
		.s10 { opacity: .23;fill: #000102 } 
		.s11 { opacity: .07;fill: #01050b } 
		.s12 { opacity: .35;fill: #000204 } 
		.s13 { opacity: .29;fill: #000305 } 
		.s14 { opacity: .16;fill: #000102 } 
		.s15 { opacity: .95;fill: #000001 } 
		.s16 { opacity: 1;fill: #000000 } 
		.s17 { opacity: .62;fill: #000101 } 
		.s18 { opacity: .56;fill: #000102 } 
	</style>
	<g id="Layer 1">
		<path id="Path 0" class="s0" d="m868.5 513c0 115.2 0.1 162.3 0.2 104.5 0.2-57.8 0.2-152 0-209.5-0.1-57.5-0.2-10.2-0.2 105zm-738.5-115.3c3.6 0.2 9 0.2 12 0 3-0.2 0.1-0.3-6.5-0.3-6.6 0-9.1 0.1-5.5 0.3zm77.5 0c31.9 0.2 84.6 0.2 117 0 32.4-0.1 6.4-0.2-58-0.2-64.3 0-90.9 0.1-59 0.2zm190 0c4.4 0.2 11.1 0.2 15 0 3.9-0.1 0.3-0.3-8-0.3-8.3 0-11.4 0.2-7 0.3zm-136.5 71c27.8 0.2 73.4 0.2 101.5 0 28.1-0.1 5.3-0.2-50.5-0.2-55.8 0-78.8 0.1-51 0.2z"/>
		<path id="Path 1" class="s1" d="m714.5 519c0 25.6 0.1 35.9 0.2 23 0.2-12.9 0.2-33.9 0-46.5-0.1-12.6-0.2-2.1-0.2 23.5zm-508.5 33.7c11.8 0.2 30.7 0.2 42 0 11.3-0.1 1.6-0.2-21.5-0.2-23.1 0-32.3 0.1-20.5 0.2zm24.5 73c33 0.2 86.6 0.2 119 0 32.4-0.1 5.5-0.2-60-0.2-65.5 0-92 0.1-59 0.2zm484 62.3c0 20.6 0.1 29 0.2 18.5 0.2-10.5 0.2-27.3 0-37.5-0.1-10.2-0.2-1.6-0.2 19z"/>
		<path id="Path 2" class="s2" d="m575.5 165c0 24.5 0.1 34.6 0.2 22.5 0.2-12.1 0.2-32.1 0-44.5-0.1-12.4-0.2-2.5-0.2 22zm292 348c0 115.2 0.1 162.3 0.2 104.5 0.2-57.8 0.2-152 0-209.5-0.1-57.5-0.2-10.2-0.2 105zm-728-197.3c53.3 0.2 140.2 0.2 193 0 52.8-0.1 9.2-0.2-97-0.2-106.2 0-149.3 0.1-96 0.2zm436 560.8c0 19.8 0.1 28.1 0.2 18.5 0.2-9.6 0.2-25.8 0-36-0.1-10.2-0.2-2.3-0.2 17.5z"/>
		<path id="Path 3" class="s3" d="m138.5 316.7c52.8 0.2 139.4 0.2 192.5 0 53.1-0.1 9.9-0.2-96-0.2-105.9 0-149.3 0.1-96.5 0.2zm111.5 154c30 0.2 79.3 0.2 109.5 0 30.3-0.1 5.7-0.2-54.5-0.2-60.2 0-85 0.1-55 0.2zm-65.2 79.5c0.4 0.4 19.1 0.7 41.7 0.5l41-0.2c-64.6-0.8-83.1-0.7-82.7-0.3z"/>
		<path id="Path 4" class="s4" d="m866.5 513.5c0 115.5 0.1 162.5 0.2 104.5 0.2-58 0.2-152.5 0-210-0.1-57.5-0.2-10-0.2 105.5zm-762-41.8c2.2 0.2 6 0.2 8.5 0 2.5-0.2 0.7-0.4-4-0.4-4.7 0-6.7 0.2-4.5 0.4zm178.5 78c1.9 0.2 5.3 0.2 7.5 0 2.2-0.2 0.6-0.4-3.5-0.4-4.1 0-5.9 0.2-4 0.4z"/>
		<path id="Path 5" class="s5" d="m692.5 374.5c0 34.1 0.1 48.3 0.2 31.5 0.2-16.8 0.2-44.7 0-62-0.1-17.3-0.2-3.6-0.2 30.5zm-514 252.2c4.4 0.2 11.2 0.2 15 0 3.8-0.1 0.3-0.3-8-0.3-8.3 0-11.4 0.2-7 0.3zm73.5 0c28.3 0.2 74.9 0.2 103.5 0 28.6-0.1 5.4-0.2-51.5-0.2-56.9 0-80.3 0.1-52 0.2z"/>
		<path id="Path 6" class="s6" d="m713.5 518.5c0 25.3 0.1 35.4 0.2 22.5 0.2-12.9 0.2-33.6 0-46-0.1-12.4-0.2-1.8-0.2 23.5zm0 170c0 20.4 0.1 28.5 0.2 18 0.2-10.5 0.2-27.1 0-37-0.1-9.9-0.2-1.4-0.2 19zm-434 18.2c18.1 0.2 47.4 0.2 65 0 17.6-0.1 2.8-0.2-33-0.2-35.8 0-50.1 0.1-32 0.2z"/>
		<path id="Path 7" class="s7" d="m188 395.7c35.5 0.2 94 0.2 130 0 36-0.1 7-0.2-64.5-0.2-71.5 0-101 0.1-65.5 0.2zm207 0c5.2 0.2 14 0.2 19.5 0 5.5-0.1 1.2-0.3-9.5-0.3-10.7 0-15.2 0.2-10 0.3z"/>
		<path id="Path 8" class="s8" d="m188 396.7c35.5 0.2 94 0.2 130 0 36-0.1 7-0.2-64.5-0.2-71.5 0-101 0.1-65.5 0.2zm206.5 0c4.9 0.2 12.6 0.2 17 0 4.4-0.1 0.4-0.3-9-0.3-9.4 0-12.9 0.2-8 0.3z"/>
		<path id="Path 9" class="s9" d="m940.5 237.7c1.6 0.2 4.8 0.2 7 0 2.2-0.2 0.9-0.4-3-0.4-3.9 0-5.6 0.2-4 0.4zm-618 312c15.4 0.2 40.8 0.2 56.5 0 15.7-0.1 3.1-0.2-28-0.2-31.1 0-43.9 0.1-28.5 0.2z"/>
		<path id="Path 10" class="s10" d="m941.5 238.7c1.6 0.2 4.8 0.2 7 0 2.2-0.2 0.9-0.4-3-0.4-3.9 0-5.6 0.2-4 0.4zm-617 312c14.9 0.2 39.4 0.2 54.5 0 15.1-0.1 3-0.2-27-0.2-30 0-42.4 0.1-27.5 0.2z"/>
		<path id="Path 11" class="s11" d="m137.5 468.7c7.7 0.2 20.5 0.2 28.5 0 8-0.1 1.7-0.3-14-0.3-15.7 0-22.2 0.2-14.5 0.3zm144 83.3l-14 0.6c20.9 0.2 27.9-0.1 29-0.6 1.1-0.5 1.3-0.8 0.5-0.7-0.8 0.1-7.8 0.4-15.5 0.7z"/>
		<path id="Path 12" class="s12" d="m741.3 541.5c0 3.9 0.2 5.2 0.4 3 0.2-2.2 0.2-5.4 0-7-0.2-1.6-0.4 0.1-0.4 4zm0 65.5c0 4.1 0.2 5.9 0.4 4 0.2-1.9 0.2-5.3 0-7.5-0.2-2.2-0.4-0.6-0.4 3.5z"/>
		<path id="Path 13" class="s13" d="m105.5 470.7c1.7 0.2 4.8 0.2 7 0 2.2-0.2 0.8-0.4-3-0.4-3.8 0-5.7 0.2-4 0.4zm635.8 222.3c0 4.7 0.2 6.5 0.4 4 0.2-2.5 0.2-6.3 0-8.5-0.2-2.2-0.4-0.2-0.4 4.5z"/>
		<path id="Path 14" class="s14" d="m691.5 375c0 33.8 0.1 47.6 0.2 30.5 0.2-17.1 0.2-44.7 0-61.5-0.1-16.8-0.2-2.8-0.2 31zm-412 332.7c18.1 0.2 47.4 0.2 65 0 17.6-0.1 2.8-0.2-33-0.2-35.8 0-50.1 0.1-32 0.2z"/>
		<path id="Path 15" class="s15" d="m576.5 165c0 24.5 0.1 34.6 0.2 22.5 0.2-12.1 0.2-32.1 0-44.5-0.1-12.4-0.2-2.5-0.2 22zm0 711.5c0 19.8 0.1 28.1 0.2 18.5 0.2-9.6 0.2-25.8 0-36-0.1-10.2-0.2-2.3-0.2 17.5z"/>
		<path id="Path 16" class="s16" d="m597 93c0 0.5-0.8 1-1.8 1-0.9 0-3.1 0.6-4.7 1.4-1.6 0.8-4.7 3.2-6.8 5.3-2 2.1-3.7 4.6-3.7 5.6 0 0.9-0.6 1.8-1.2 2-1 0.3-1.3 12.1-1.3 54.8v54.4c3.5 5.4 4.9 8 5.5 9.3 0.5 1.2 1.7 2.2 2.5 2.2 0.8 0 2.1 0.8 2.8 1.9 0.6 1 2.8 2.1 4.7 2.5 1.9 0.4 5.1 1 7 1.3 1.9 0.3 4 0.9 4.5 1.3 0.5 0.4 4.9 1.1 9.8 1.4 4.8 0.3 8.7 1 8.7 1.6 0 0.6 1.4 1 3 1 1.6 0 3.2 0.4 3.5 1 0.3 0.6 2.5 1.2 5 1.5 2.5 0.3 4.5 0.8 4.5 1.3 0 0.4 2.7 1.8 6 3.2 3.3 1.4 6 2.8 6 3.3 0 0.4 0.6 0.7 1.3 0.7 0.6 0 2.5 1 4.1 2.2 1.6 1.3 6.3 5.7 10.5 9.8 4.2 4.1 8.3 8.7 9.1 10.3 0.8 1.5 1.8 2.7 2.3 2.7 0.4 0 0.7 0.7 0.7 1.5 0 0.8 0.5 1.5 1 1.5 0.5 0 1.3 1.2 1.6 2.8 0.3 1.5 0.9 2.9 1.2 3.2 0.4 0.3 2 3 3.5 6 1.5 3 3.3 8.8 4 12.8 0.7 3.9 1.5 7.2 2 7.2 0.4 0 0.7 29 0.7 64.5 0 42.3-0.3 64.5-1 64.5-0.5 0-1 0.9-1 2 0 1.1-0.2 2.7-0.5 3.5-0.3 0.8-1.6 1.5-3 1.5-1.4 0-2.5-0.4-2.5-1 0-0.6-1.1-1.2-2.5-1.5-1.4-0.3-2.5-0.9-2.5-1.5 0-0.6-0.8-1.2-1.7-1.5-1-0.3-2.9-1.5-4.4-2.7-1.4-1.3-3.2-2.7-4.2-3.3-0.9-0.6-5.1-3.4-9.4-6.4-4.3-3-8.4-6-9.1-6.5-0.7-0.6-2.4-2.1-3.7-3.3-1.4-1.3-2.8-2.3-3.2-2.3-0.5 0-3.3-1.7-6.3-3.8-3-2-5.8-4.3-6.2-4.9-0.5-0.7-1.5-1.3-2.3-1.3-0.8 0-2.1-0.8-2.7-1.7-0.7-1-2.5-2.5-4.1-3.3-1.5-0.8-2.7-1.8-2.7-2.2 0-0.5-0.7-0.8-1.5-0.8-0.8 0-2.1-0.6-2.7-1.2-0.7-0.7-3.1-2.6-5.3-4.3-2.2-1.6-4.7-3.6-5.5-4.4-0.8-0.7-2.4-1.8-3.5-2.2-1.1-0.5-2.9-1.5-4-2.1-1.1-0.7-2.5-2.1-3.2-3-0.7-1-1.9-1.8-2.5-1.8-0.7 0-2.2-1-3.3-2.3-1.1-1.2-3.6-3-5.5-3.9-1.9-1-4.4-2.4-5.5-3-1.1-0.7-2.7-2.1-3.5-3-0.8-0.9-2-1.7-2.5-1.7-0.5 0-2.4-1.2-4-2.6-1.6-1.4-5.6-3.8-8.8-5.3-3.1-1.5-5.7-3-5.7-3.4 0-0.5-0.7-0.8-1.5-0.8-0.8 0-1.5-0.4-1.5-1 0-0.6-0.6-1-1.2-1-0.7 0-5.8-2.3-11.3-5-5.5-2.7-10.7-5-11.5-5-0.8 0-2.4-0.7-3.5-1.5-1.1-0.8-3.6-1.7-5.5-2-1.9-0.2-4.2-1.2-5-2-0.8-0.9-2.1-1.6-2.7-1.5-0.7 0-2.8-0.6-4.5-1.4-1.8-0.8-5.3-1.9-7.8-2.6-2.5-0.7-7-1.8-10-2.5-3-0.7-5.7-1.4-6-1.6-0.3-0.1-0.9-0.3-1.5-0.4-0.6-0.1-3-0.6-5.4-1.1-2.4-0.5-4.5-1.2-4.7-1.6-0.2-0.5-2-0.8-3.9-0.8-1.9 0-3.7-0.4-4-1-0.3-0.6-4.2-1.3-8.7-1.6-4.6-0.3-8.9-1.1-9.7-1.8-1-0.8-53.4-1.2-200.8-1.3-176.6-0.3-199.3-0.1-199.3 1.2 0 0.8 0.5 1.7 1 2 0.6 0.3 1 1.5 1 2.8 0 1.2 0.9 2.8 2 3.5 1.1 0.6 1.9 2 1.8 3-0.1 0.9 0.7 4.2 1.7 7.2 1.1 3 2.2 5.7 2.6 6 0.3 0.3 1.8 3.5 3.5 7.3 1.6 3.7 3.2 6.7 3.7 6.7 0.4 0 0.7 0.4 0.7 1 0 0.6 0.8 1.9 1.8 2.9 0.9 1.1 3.7 4.4 6.2 7.4 2.5 3.1 5.1 5.6 5.8 5.6 0.6 0.1 3.1 1.7 5.5 3.6 2.3 1.9 4.8 3.5 5.5 3.5 0.6 0 1.3 0.3 1.5 0.8 0.1 0.4 3.1 2.2 6.7 3.9 3.6 1.8 8.4 3.6 10.8 4 2.3 0.4 4.2 1.1 4.2 1.6 0 0.4 1.4 0.7 3 0.7 1.7 0 3.1 0.6 3.3 1.3 0.3 0.9 32.4 1.3 155.3 1.5 85.2 0.1 155.3 0.6 155.9 1.1 0.6 0.5 4.8 1.1 9.5 1.5 4.7 0.4 9.1 1.1 9.8 1.7 0.6 0.5 2.4 0.6 4 0.3 1.8-0.5 3-0.2 3.7 0.8 0.6 0.8 4.4 2 9 2.8 4.4 0.7 8.7 1.6 9.5 2 0.8 0.4 4.2 1.6 7.5 2.6 3.3 1 6.4 2.1 7 2.5 0.6 0.4 2.5 0.9 4.3 1.3 1.7 0.3 3.2 1 3.2 1.6 0 0.6 1.1 1 2.5 1 1.4 0 2.5 0.3 2.5 0.8 0 0.4 2 1.4 4.5 2.2 2.5 0.8 4.5 1.8 4.5 2.3 0 0.4 0.8 0.9 1.8 1.2 0.9 0.2 2.6 1 3.6 1.7 1.1 0.7 2.6 1.7 3.4 2.3 0.8 0.6 2.4 1.9 3.6 3 1.2 1.1 3.5 2.6 5.1 3.3 1.7 0.7 4.2 2.2 5.7 3.5 1.5 1.2 3.7 3 5 4 1.3 0.9 2.9 1.7 3.6 1.7 0.6 0 1.2 0.4 1.2 1 0 0.6 2.6 2.7 5.8 4.7 3.1 2.1 5.8 4.1 6 4.5 0.1 0.5 0.7 0.8 1.2 0.8 0.5 0 2.2 1.1 3.8 2.5 1.5 1.4 3.3 2.5 4 2.5 0.6 0 1.4 0.7 1.7 1.5 0.3 0.8 1.1 1.5 1.8 1.5 0.6-0.1 2.1 0.9 3.2 2 1.1 1.1 2.6 2.1 3.3 2 0.6 0 1.8 0.8 2.5 1.8 0.7 0.9 2 2.1 2.9 2.7 0.9 0.6 4.4 2.9 7.8 5.3 3.3 2.3 6.2 4.2 6.5 4.2 0.3 0 1.6 1.1 3 2.5 1.4 1.4 3 2.5 3.5 2.5 0.5 0 2.1 1 3.5 2.3 1.4 1.2 3.5 3 4.5 4 1.1 0.9 2.7 1.7 3.5 1.7 0.8 0 1.7 0.7 2 1.5 0.3 0.8 1.1 1.5 1.8 1.5 0.6 0 3.1 1.8 5.5 4 2.3 2.2 4.7 4 5.2 4 0.5 0 3 1.4 5.5 3 2.5 1.6 4.5 3.4 4.5 4 0 0.6 1.1 1.2 2.5 1.5 1.4 0.3 2.5 0.9 2.5 1.5 0 0.6 0.5 1 1 1 0.5 0 1.6 0.4 2.3 1 0.6 0.5 2.7 2.1 4.5 3.5 1.7 1.4 3.7 2.5 4.2 2.5 0.5 0 1.6 0.9 2.3 2 0.6 1.1 1.9 2 2.7 2 0.8 0 2.9 1.4 4.5 3.1 1.6 1.6 3.9 3.2 5 3.6 1.1 0.3 2.2 0.9 2.5 1.2 0.3 0.4 2.4 2.1 4.8 3.9 2.3 1.7 4.7 3.2 5.2 3.2 0.5 0 1.1 0.3 1.3 0.8 0.1 0.4 2.1 2.2 4.5 4 2.3 1.7 4.7 3.2 5.2 3.2 0.5 0 1.2 0.7 1.5 1.5 0.3 0.8 1.1 1.5 1.8 1.5 0.6 0 2.4 1.1 4 2.5 1.5 1.4 2.9 2.5 3.2 2.5 0.3 0 2 1 3.8 2.3 1.7 1.2 3.4 2.5 3.7 2.9 0.3 0.4 1.7 1.5 3.3 2.3l2.7 1.5c0-72.7 0.4-91 1-92.5 0.8-2 1.7-2.5 4.5-2.5 1.9 0 3.7 0.4 4 1 0.3 0.6 1.4 1 2.5 1 1.1 0 2 0.4 2 1 0 0.6 0.8 1 1.8 1 0.9-0.1 2.8 0.8 4.2 1.8 1.4 1 3.3 2.2 4.3 2.5 0.9 0.4 2 1.5 2.4 2.5 0.3 0.9 1.3 2.5 2.2 3.6 1.4 1.6 1.6 12.8 1.6 116.2 0 83.1-0.3 114.7-1.1 115.2-0.6 0.4-1.4 1.6-1.7 2.7-0.4 1.1-2 2.8-3.7 3.7-1.6 1-3.8 1.8-4.8 1.8-1 0-2.2 0.4-2.8 0.9-0.5 0.5-2.6 1.4-4.6 2-2.1 0.6-3.8 1.6-3.8 2.1 0 0.5-1.6 1-3.5 1-2.2 0-3.7-0.5-4-1.5-0.3-0.8-0.5-17.9-0.5-38 0-20.1-0.3-36.5-0.7-36.5-0.5 0.1-2.9-1.7-5.5-4-2.7-2.2-5.3-4-5.8-4-0.5 0-1.2-0.7-1.5-1.5-0.3-0.8-1.1-1.5-1.7-1.5-0.7 0.1-2.2-0.9-3.3-2-1.1-1.1-2.6-2.1-3.2-2-0.7 0-1.3-0.3-1.3-0.8 0-0.4-1.4-1.6-3.2-2.6-1.8-1.1-3.5-2.2-3.8-2.5-0.3-0.3-2.3-1.8-4.5-3.3-2.2-1.5-4.9-3.5-6.1-4.5-1.1-1-2.9-2.4-4-3.1-1-0.7-2.7-1.5-3.6-1.7-1-0.3-1.8-0.8-1.8-1.3 0-0.4-2-2.2-4.5-4-2.5-1.7-4.8-3.2-5.2-3.2-0.5-0.1-2.8-1.8-5.3-4-2.5-2.2-5.1-3.9-5.7-4-0.7 0-1.5-0.7-1.8-1.5-0.3-0.8-1.1-1.5-1.7-1.5-0.7 0.1-2.2-0.9-3.3-2-1.1-1.1-2.6-2.1-3.2-2-0.7 0-1.3-0.5-1.3-1 0-0.5-0.8-1.2-1.7-1.5-1-0.3-3.2-1.6-4.8-3-1.6-1.3-3.5-2.8-4-3.3-0.5-0.4-3.6-2.6-6.8-4.7-3.2-2.2-6.6-4.5-7.5-5-0.8-0.5-2.5-1.9-3.6-3-1.2-1.1-3.8-2.9-6-4-2.1-1.1-4-2.6-4.2-3.3-0.2-0.6-1.1-1.2-1.9-1.2-0.8 0-2.5-1-3.8-2.3-1.3-1.2-3-2.7-3.9-3.2-0.9-0.5-4.9-3.3-8.9-6-3.9-2.8-7.7-5.6-8.3-6.3-0.6-0.7-1.7-1.3-2.3-1.2-0.7 0-1.6-0.6-2-1.4-0.5-0.7-2.3-2.1-4-3-1.8-0.9-3.5-2.2-3.8-2.9-0.2-0.6-1.2-1.5-2.2-1.9-1-0.4-2.7-1.3-3.7-2-1.1-0.7-2.5-1.6-3-2-0.6-0.4-2.6-1.9-4.3-3.3-1.8-1.4-3.8-2.5-4.3-2.5-0.5 0-1.6-0.9-2.2-2-0.7-1.1-1.9-2-2.5-2-0.7 0-2.4-1.1-3.8-2.5-1.4-1.4-3-2.5-3.5-2.5-0.5 0-1.2-0.7-1.5-1.5-0.3-0.8-1.1-1.5-1.7-1.5-0.7 0.1-2-0.7-2.8-1.6-0.8-0.9-2.4-2.1-3.5-2.5-1.1-0.5-2.9-1.5-4-2.1-1.1-0.7-2.4-1.9-3-2.6-0.5-0.7-2-1.8-3.1-2.5-1.2-0.7-4.8-3-8-5.1-3.3-2.1-8.5-5.3-11.7-7-3.2-1.7-5.8-3.4-5.7-3.9 0-0.4-0.8-0.7-1.7-0.7-1 0-3.6-0.9-5.8-1.9-2.2-1-6.5-2.7-9.5-3.7-3-1-5.9-2.1-6.5-2.5-0.6-0.4-3-1.1-5.4-1.6-2.4-0.4-4.5-1.1-4.7-1.6-0.2-0.4-2-0.7-3.9-0.7-1.9 0-3.5-0.4-3.5-1 0-0.6-1.5-1-3.2-0.9-1.8 0-7.6-0.4-12.8-1-6.2-0.7-55.5-1-141-1-72.3 0-142.5 0.3-156 0.6-13.5 0.4-23.9 0.8-23.2 1 0.6 0.1 1.2 1 1.2 1.8 0 0.8 0.4 2.3 0.9 3.2 0.6 1 1.3 3.2 1.7 4.8 0.4 1.6 0.7 3.6 0.6 4.2-0.1 0.7 0.1 1.3 0.6 1.3 0.4 0 1.6 2.6 2.7 5.7 1.1 3.2 2.3 6 2.6 6.3 0.3 0.3 1.2 2.3 2 4.5 0.8 2.2 2.2 4.6 3.1 5.2 1 0.7 1.8 2 1.8 2.8 0 0.8 0.7 1.7 1.5 2 0.8 0.3 1.5 1.1 1.5 1.7 0 0.7 2.8 4.2 6.3 7.7 3.4 3.5 7.4 7 9 7.7 1.5 0.8 2.7 1.7 2.7 2.1 0 0.5 1.4 1.5 3.2 2.3 1.8 0.8 3.7 2 4.3 2.5 0.5 0.6 2.8 1.8 5 2.7 2.2 0.9 7 2.5 10.8 3.7 3.7 1.2 7.5 2.1 8.5 2.1 0.9 0 2.3 0.5 3 1.2 1 1 25.8 1.3 121.2 1.3 95.4 0 120.2 0.3 121.2 1.3 0.7 0.7 2.3 1.2 3.5 1.2 1.3 0 2.5 0.5 2.8 1 0.3 0.5 1.4 1 2.5 1 1.1 0 3.7 0.7 5.7 1.6 2.1 0.9 5.6 2.4 7.8 3.5 2.2 1 4.6 1.9 5.2 1.9 0.7 0 1.3 0.5 1.3 1 0 0.5 1.2 1.3 2.7 1.6 1.6 0.3 3.5 1.4 4.3 2.4 0.8 0.9 2.6 2.1 4 2.5 1.4 0.5 2.9 1.2 3.5 1.7 0.6 0.5 3.8 2.9 7.2 5.3 3.5 2.5 6.7 4.5 7.3 4.5 0.6 0 1 0.5 1 1 0 0.5 2.7 2.7 6 4.7 3.4 2.1 6.1 4.1 6 4.5 0 0.5 0.8 1 1.7 1.3 1 0.2 2.7 1 3.7 1.7 1.1 0.7 2.9 2.2 4 3.3 1.2 1.1 3.5 2.7 5.1 3.5 1.6 0.8 3.7 2.3 4.5 3.2 0.8 0.9 2.1 1.7 2.7 1.8 0.7 0 2.4 1.1 3.8 2.5 1.4 1.4 2.7 2.5 3 2.5 0.3 0 2.4 1.5 4.7 3.2 2.3 1.8 5.1 3.8 6.3 4.5 1.1 0.7 2.7 1.6 3.5 2 0.8 0.4 2.3 1.7 3.2 3 1 1.3 2.5 2.3 3.3 2.3 0.8 0 1.5 0.3 1.5 0.7 0 0.5 1.5 1.6 3.5 2.5 1.9 1 5 3.1 6.7 4.8 1.8 1.6 3.6 2.9 4 3 0.5 0 1.4 0.4 2 1 0.7 0.5 2.8 2.1 4.5 3.5 1.8 1.4 3.8 2.5 4.3 2.5 0.5 0 1.6 0.8 2.2 1.9 0.7 1 2.3 2.1 3.5 2.5 1.3 0.3 2.3 1.1 2.3 1.6 0 0.5 0.6 1 1.2 1 0.7 0.1 2.3 1.2 3.5 2.5 1.3 1.4 2.5 2.5 2.8 2.5 0.3 0 3.1 1.7 6.2 3.7 3.2 2.1 6.4 4.5 7 5.5 0.7 1 2 1.8 2.8 1.8 0.8 0 1.8 0.6 2.2 1.3 0.5 0.6 1.9 1.8 3.3 2.5 1.4 0.7 3.9 2.3 5.5 3.7 1.6 1.4 3.6 2.9 4.2 3.5 0.7 0.5 1.8 1 2.3 1 0.5 0 1.1 0.4 1.2 0.8 0.2 0.4 4 3.2 8.6 6.2 4.5 3 8.2 5.8 8.2 6.2 0 0.5 0.7 0.8 1.5 0.8 0.8 0 1.7 0.7 2 1.5 0.3 0.8 1.2 1.5 2 1.5 0.8 0 1.5 0.3 1.5 0.7-0.1 0.5 1.2 1.4 2.7 2 1.5 0.7 3.9 2.4 5.3 3.8 1.4 1.4 2.8 2.5 3.2 2.5 0.5 0 1.4 0.4 2 1 0.7 0.5 2.9 2.3 4.8 3.9 1.9 1.7 4.1 3 4.8 3.1 0.6 0 1.4 0.7 1.7 1.5 0.3 0.8 1.1 1.5 1.8 1.5 0.6 0 2.4 1.1 3.9 2.5 1.6 1.4 3.1 2.5 3.5 2.5 0.5 0 2.7 2.1 5 4.5 3.8 3.9 4.3 5.1 4.3 9 0 2.5-0.5 4.7-1 5-0.5 0.3-1 1.6-1 3 0 1.4-0.5 2.5-1 2.5-0.5 0-1 0.6-1 1.2 0 0.7-3 4.2-6.8 7.8-3.7 3.6-8.5 8-10.7 9.8-2.2 1.8-5.1 3.5-6.5 3.8-1.4 0.3-5.3 1.9-8.8 3.5-3.4 1.6-7.1 2.9-8.2 2.9-1.1 0-2 0.5-2 1 0 0.5-2.3 1-5 1-2.8 0-5-0.5-5-1 0-0.5-0.6-1-1.3-1-0.6 0-2.4-1.1-4-2.5-1.5-1.4-3.3-2.5-4-2.5-0.6 0-3.1-1.5-5.5-3.5-2.3-1.9-4.7-3.5-5.2-3.5-0.5 0-1-0.5-1-1 0-0.5-0.8-1.2-1.8-1.5-0.9-0.2-2.6-1.2-3.7-2.2-1.2-1-3.5-2.8-5.3-4.1-1.8-1.2-3.7-2.2-4.2-2.2-0.5 0-1.8-1-2.8-2.3-1-1.2-2.7-2.8-3.7-3.5-1.1-0.7-2.8-1.5-3.8-1.7-0.9-0.3-1.7-1-1.7-1.5 0-0.5-1.9-2.1-4.3-3.4-2.3-1.4-5.6-3.6-7.2-5.1-1.6-1.4-3.5-2.5-4-2.5-0.5 0-1.7-0.9-2.5-2-0.8-1.1-2-2-2.5-2-0.5 0-1.9-0.9-3-2-1.1-1.1-2.6-2.1-3.3-2-0.6 0-1.4-0.7-1.7-1.5-0.3-0.8-1.1-1.5-1.8-1.5-0.6 0-2.3-1.1-3.7-2.5-1.4-1.4-3.1-2.5-3.8-2.5-0.6 0-1.4-0.7-1.7-1.5-0.3-0.8-1-1.5-1.5-1.5-0.5 0-3-1.4-5.5-3-2.5-1.6-4.5-3.5-4.5-4 0-0.5-0.8-1.2-1.8-1.5-0.9-0.2-2.6-1-3.7-1.7-1.1-0.7-2.2-1.5-2.5-1.8-0.3-0.3-2.2-1.7-4.3-3.3-2-1.5-4-2.7-4.5-2.7-0.4 0-1.7-1.1-3-2.5-1.2-1.4-2.8-2.5-3.5-2.5-0.6 0-1.9-0.9-2.7-2-0.8-1.1-1.8-2-2.3-2-0.4 0-2.5-1.2-4.7-2.8-2.2-1.5-4-3-4-3.5 0-0.4-0.4-0.7-1-0.7-0.6 0-3.1-1.8-5.8-4-2.6-2.2-5.1-4-5.7-3.9-0.6 0-1.9-1-3-2.1-1.1-1.1-2.6-2.1-3.3-2-0.6 0-1.8-0.8-2.5-1.9-0.6-1-2.2-2.1-3.5-2.5-1.2-0.3-2.4-1.5-2.7-2.6-0.3-1.1-1.3-2-2.3-2-0.9-0.1-4-1.7-6.7-3.8-2.8-2-5.6-4.2-6.3-4.9-0.6-0.7-1.6-1.3-2.2-1.3-0.6 0-2.2-1.1-3.8-2.5-1.5-1.4-3.6-2.8-4.7-3.1-1.1-0.4-2.2-0.9-2.5-1.3-0.3-0.3-1.4-1.1-2.5-1.8-1.1-0.7-3.8-2.1-6-3.1-2.2-1.1-5.7-2.7-7.8-3.6-2-0.9-4.6-1.6-5.7-1.6-1.1 0-2.2-0.5-2.5-1-0.3-0.7-40.8-1-118.5-1-78 0-118 0.3-118 1 0 0.5 0.4 1.8 0.9 2.7 0.5 1 1.6 4.3 2.6 7.3 0.9 3 2.3 7 3.1 8.7 0.8 1.8 1.4 4 1.4 4.8 0 0.8 0.4 1.5 1 1.5 0.6 0 1.6 2 2.2 4.5 0.7 2.5 1.6 4.5 2 4.5 0.5 0 0.8 0.9 0.8 2 0 1.1 0.7 2.2 1.5 2.5 0.8 0.3 1.5 1.2 1.5 2 0 0.8 0.4 1.5 1 1.5 0.6 0 2.1 1.7 3.4 3.7 1.4 2.1 3.5 4.9 4.8 6.3 1.3 1.4 3.9 3.7 5.8 5 1.9 1.3 3.7 2.7 4 3 0.3 0.3 2 1.5 3.7 2.7 1.8 1.3 3.7 2.3 4.3 2.3 0.6 0 1 0.5 1 1 0 0.5 0.9 1 2 1 1.1 0 2 0.3 2 0.7 0 0.5 1.9 1.4 4.2 2.2 2.4 0.8 4.7 1.8 5.3 2.2 0.6 0.4 3.2 1.2 6 1.8 2.7 0.7 6.1 1.5 7.5 1.7 1.4 0.3 3.4 1 4.5 1.5 1.1 0.5 30.8 1 68.7 1.1 52.2 0.2 67 0.6 68 1.6 0.7 0.7 2.1 1.2 3 1.2 1 0 1.8 0.5 1.8 1 0 0.5 0.6 1 1.2 1 0.7 0 3.5 1.2 6.3 2.5 2.7 1.4 5.9 3.1 6.9 3.8 1.1 0.6 2.7 1.9 3.6 2.7 0.9 0.8 3 2.5 4.6 3.8 1.6 1.2 3.5 2.2 4.1 2.2 0.7 0 1.3 0.5 1.3 1 0 0.5 1 1.4 2.2 2 1.3 0.5 3.2 1.6 4.3 2.2 1.1 0.7 2.3 1.9 2.7 2.5 0.5 0.7 1.4 1.3 2 1.3 0.7-0.1 2.2 0.9 3.3 2 1.1 1.1 2.4 2.1 3 2.1 0.6 0 1.7 0.8 2.5 1.7 0.8 0.9 2.4 2.3 3.5 3 1.1 0.6 2.9 1.6 4 2.1 1.1 0.5 3.6 2.3 5.5 4.1 1.9 1.7 4.6 3.8 6 4.5 1.4 0.8 3.5 1.9 4.7 2.4 1.3 0.6 2.3 1.6 2.3 2.1 0 0.5 0.4 1 1 1 0.6 0 2.2 1.1 3.7 2.5 1.6 1.4 3.4 2.5 4 2.5 0.7 0 1.3 0.5 1.3 1 0 0.5 1 1.5 2.2 2 1.3 0.6 3.4 1.7 4.8 2.5 1.4 0.8 2.7 1.8 3 2.3 0.3 0.4 3.1 2.6 6.2 5 3.2 2.3 6.1 4.2 6.5 4.3 0.5 0 2.8 1.6 5.3 3.5 2.5 1.9 5.5 4 6.8 4.7 1.2 0.6 2.2 1.5 2.2 1.9 0 0.5 0.7 0.8 1.5 0.8 0.8 0 1.6 0.3 1.7 0.7 0.2 0.5 2 2 4 3.5 2.1 1.6 4.3 2.8 4.8 2.8 0.5 0 1.6 0.9 2.2 2 0.7 1.1 2 2 2.8 2 0.8 0 2.4 1 3.5 2.3 1.1 1.2 3.4 2.9 5 3.7 1.6 0.8 3.2 1.7 3.5 2 0.3 0.3 1.9 1.4 3.5 2.4 1.6 1.1 3.3 2.5 3.7 3.3 0.5 0.7 1.5 1.3 2.3 1.3 0.8 0 1.6 0.3 1.7 0.7 0.2 0.5 2.3 2.1 4.8 3.8 2.5 1.6 6.3 4.4 8.5 6.2 2.2 1.8 4.3 3.3 4.7 3.3 0.5 0 2.6 1.7 4.8 3.7l4 3.8c0.6 74 0.6 75.1 2.8 79.3 1.2 2.3 2.7 4.2 3.2 4.2 0.5 0 2.4 1.1 4 2.5 1.6 1.4 4.1 2.5 5.5 2.5 1.8 0 2.5 0.5 2.5 2 0 1.6 0.7 2 3.5 2 1.9 0 3.7-0.6 3.9-1.3 0.4-1 0.5-1 0.5 0 0.1 1 36.2 1.3 177.1 1.3 176.2 0 177 0 177.5-2 0.3-1.4 1.3-2 3.3-2 1.5 0 4.7-1 7.2-2.3 2.5-1.2 5.6-3.9 7.2-6.2 1.5-2.2 2.7-5.2 2.8-6.8 0-1.9 0.6-2.9 2-3.2 2-0.5 2-1.3 2-46 0-44.7 0-45.5-2-46-1.6-0.4-2-1.3-2-4.5 0-2.2-0.3-4-0.7-4-0.5 0-1.1-1.2-1.5-2.7-0.4-1.6-2.1-4.3-3.8-6.1-1.6-1.7-3.7-3.2-4.5-3.2-0.8 0-1.5-0.5-1.5-1 0-0.5-3.7-1.4-8.2-2-4.6-0.5-10.1-1.2-12.3-1.5-2.2-0.3-6-0.8-8.5-1.2-2.5-0.3-5-0.9-5.5-1.3-0.5-0.4-3.2-1.1-6-1.5-2.7-0.4-5.5-1-6-1.4-0.5-0.4-3.5-1.5-6.5-2.6-3-1-5.7-2.1-6-2.4-0.3-0.3-1.9-1.3-3.5-2.1-1.6-0.8-4.2-2.4-5.7-3.5-1.5-1.1-5.2-4.4-8.3-7.3-3-2.8-5.5-5.4-5.5-5.7 0-0.3-1.1-1.7-2.5-3.3-1.4-1.5-2.5-3.3-2.5-4 0-0.6-0.3-1.2-0.7-1.2-0.5 0.1-1.8-2.3-3.1-5.2-1.2-2.9-2.7-6.1-3.2-7.1-0.6-0.9-1.3-3.7-1.7-6.2-0.5-2.5-1.1-4.5-1.5-4.5-0.5 0-0.8-1.8-0.8-4 0-2.2-0.5-4.2-1-4.5-0.7-0.3-1-71.7-1-211 0-139.3 0.3-210.7 1-211 0.5-0.3 1-2.3 1-4.5 0-2.2 0.3-4.2 0.8-4.4 0.4-0.2 1-2.2 1.5-4.5 0.4-2.2 1.1-4.9 1.6-5.9 0.5-0.9 1.9-4 3.2-6.7 1.3-2.8 2.9-5.3 3.6-5.8 0.7-0.4 1.3-1.1 1.3-1.7 0-0.6 3.5-4.6 7.8-9 4.2-4.3 8.3-7.9 9-8 0.6 0 1.4-0.7 1.7-1.5 0.3-0.8 1.1-1.5 1.8-1.5 0.6 0 4.3-1.6 8.2-3.5 3.9-1.9 8-3.5 9.3-3.5 1.2 0 2.4-0.4 2.7-1 0.3-0.6 1.9-1 3.5-1 1.6 0 3.1-0.5 3.3-1 0.1-0.6 5.4-1.4 12.1-1.8 6.5-0.4 12-1 12.2-1.5 0.2-0.4 2.1-0.7 4.2-0.7 2 0 5.7-0.5 8.2-1.1 2.5-0.6 5.2-1.9 6-2.9 0.8-1.1 2-1.9 2.5-1.9 0.5 0 2-2.2 3.2-4.8 1.3-2.7 2.3-5.4 2.3-6.1 0-0.6 0.9-1.2 2-1.2 2 0 2-0.7 2-51.5 0-50.7 0-51.5-2-52-1.3-0.3-2-1.3-2-2.8 0-1.2-0.9-4.1-2-6.5-1.1-2.3-3.1-4.8-4.5-5.5-1.4-0.6-2.5-1.5-2.5-2 0-0.4-0.7-0.7-1.5-0.7-0.8 0-1.5-0.5-1.5-1 0-0.6-1.4-1-3-1-1.6 0-3-0.5-3-1 0-0.7-61.2-1-181.5-1-120.3 0-181.5 0.3-181.5 1z"/>
		<path id="Path 17" class="s17" d="m238 469.7c32.7 0.2 86.1 0.2 118.5 0 32.4-0.1 5.7-0.2-59.5-0.2-65.2 0-91.7 0.1-59 0.2z"/>
		<path id="Path 18" class="s18" d="m205.5 551.7c11.6 0.2 30.7 0.2 42.5 0 11.8-0.1 2.4-0.2-21-0.2-23.4 0-33.1 0.1-21.5 0.2z"/>
	</g>
</svg>